<?xml version="1.0" encoding="utf-8"?>
<!-- Generator: Adobe Illustrator 27.5.0, SVG Export Plug-In . SVG Version: 6.00 Build 0)  -->
<svg version="1.1" id="Capa_2" xmlns="http://www.w3.org/2000/svg" xmlns:xlink="http://www.w3.org/1999/xlink" x="0px" y="0px"
	 viewBox="0 0 1975 2279" style="enable-background:new 0 0 1975 2279;" xml:space="preserve">
<path style="fill:#6BC9F3;" d="M1152.576,1464.161c49.906-82.794,96.701-166.764,139.603-252.064
	c104.161-207.203,194.231-525.384,120.475-742.784c-0.668-1.982-1.353-3.954-2.049-5.919c-3.75-11.911-8.531-23.547-14.275-34.866
	c-1.292-2.754-2.614-5.487-3.969-8.195l-0.203-0.326c-26.966-48.492-71.934-90.746-129.644-123.291
	c-33.661-18.97-71.762-34.712-113.001-46.282c-0.755-0.212-1.51-0.422-2.265-0.631l-0.539-0.148
	c-49.413-13.628-103.25-21.229-159.387-21.229c-34.315,0-67.754,2.875-99.845,8.19l-0.202,0.054
	c-65.26,10.848-124.992,31.894-174.949,60.046c-57.709,32.545-102.677,74.799-129.644,123.291l-0.203,0.326
	c-8.697,15.729-15.573,32.111-20.293,48.98c-73.755,217.4,16.315,535.581,120.475,742.784
	c42.868,85.23,89.621,169.134,139.48,251.862c-6.029,9.013-11.892,17.608-17.548,25.705l0.014,0.036
	c-169.394,242.509-334.25,408.554-334.25,408.554l186.452,12.789l87.061,139.196c84.249-108.653,166.134-218.877,243.548-331.081
	c77.415,112.204,159.3,222.428,243.549,331.081l95.916-135.529l177.597-16.457
	C1504.482,1898.253,1327.978,1720.476,1152.576,1464.161z M992.986,492.799c61.976,0,120.533,13.4,173.285,30.385
	c0.059,1.009,0.12,2.018,0.175,3.027c10.533,193.326-49.649,395.889-138.528,584.21c-12.465,24.422-26.586,51.083-41.742,78.859
	C876.451,979.49,796.376,746.837,808.396,526.212C864.757,507.824,927.388,492.799,992.986,492.799z"/>
<path style="fill:#0077B9;" d="M1087.365,236.67v-0.026c-32.165-5.339-65.665-8.218-100.043-8.218
	c-34.315,0-67.754,2.875-99.846,8.19v0.054c-49.214,91.832-73.619,189.466-79.08,289.542c56.36-18.387,118.992-33.413,184.59-33.413
	c61.975,0,120.533,13.4,173.284,30.385C1160.486,424.167,1136.083,327.575,1087.365,236.67z"/>
<path style="fill:#198ECE;" d="M470.359,1898.253l186.452,12.789l87.061,139.195c84.249-108.653,166.135-218.877,243.548-331.081
	c-57.84-83.836-113.184-168.778-165.154-254.995C646.864,1720.476,470.359,1898.253,470.359,1898.253z"/>
<path style="fill:#198ECE;" d="M1087.365,236.616v0.054c48.718,90.905,73.121,187.497,78.906,286.515
	c0.059,1.009,0.12,2.018,0.175,3.027c12.066,221.461-68.661,455.04-179.025,665.451c50.823,96.896,107.93,188.877,165.156,272.5
	c49.906-82.795,96.701-166.766,139.604-252.065c104.16-207.202,194.23-525.383,120.475-742.784c-0.67-1.984-1.355-3.961-2.053-5.93
	c-4.234-11.944-8.982-23.576-14.265-34.841c-1.293-2.758-2.617-5.496-3.975-8.209l-0.203-0.326
	c-26.967-48.492-71.934-90.746-129.644-123.291c-33.67-18.974-71.781-34.719-113.033-46.291c-0.728-0.204-1.457-0.407-2.187-0.608
	l-0.64-0.177c-19.078-5.245-38.816-9.6-59.09-12.97L1087.365,236.616z"/>
<path style="fill:#49BDE9;" d="M1194.07,1920.165c-0.572-0.298-1.123-0.751-1.629-1.385c-11.256-14.106-22.437-28.272-33.532-42.506
	c-83.769-107.478-162.945-218.575-236.729-333.144c-63.066-97.927-122.453-198.407-175.533-302.119
	c-39.464-77.105-76.587-156.376-103.339-238.903c-14.61-45.072-26.398-91.279-36.743-137.498
	c-12.18-54.411-21.544-109.58-25.994-165.191c-8.522-106.507,0.809-220.906,59.883-312.972c3.718-5.794,12.991-0.413,9.256,5.409
	c-6.867,10.702-13.153,21.751-18.777,33.157c-48.382,98.116-48.387,213.937-34.878,320.151
	c6.916,54.377,18.088,108.19,31.514,161.309c10.239,40.506,21.36,80.86,35.443,120.216
	c30.346,84.806,69.954,166.326,112.121,245.802c55.48,104.57,116.911,205.978,182.08,304.775
	c66.83,101.316,137.807,199.899,212.513,295.555c-104.662-207.844-389.677-826.307-361.33-1346.61
	c5.46-100.075,29.866-197.71,79.08-289.541v-0.054l-0.202,0.054c-65.26,10.848-124.992,31.894-174.949,60.046
	c-57.709,32.545-102.677,74.799-129.644,123.291l-0.203,0.325c-7.82,15.622-14.562,32.002-20.293,48.98
	c-73.755,217.4,16.315,535.581,120.475,742.784c42.868,85.23,89.621,169.134,139.48,251.862
	c51.978,86.242,107.332,171.206,165.186,255.065l0.093,0.133c77.414,112.205,159.299,222.429,243.548,331.081l95.916-135.527
	l-119.521,30.26C1207.364,1944.97,1202.585,1936.342,1194.07,1920.165z"/>
<path style="fill:#0077B9;" d="M1029.494,1107.329c-0.521,1.024-1.046,2.053-1.573,3.085
	c-12.465,24.425-26.587,51.088-41.746,78.867c51.112,97.725,108.656,190.49,166.324,274.766
	c6.849-11.286,13.392-22.206,19.57-32.667L1029.494,1107.329z"/>
<path style="fill:#0077B9;" d="M987.328,1719.023c-57.853-83.859-113.208-168.823-165.186-255.065
	c-6.028,9.014-11.892,17.607-17.547,25.705l0.013,0.035L925.5,1806.968C944.953,1780.117,965.878,1750.316,987.328,1719.023z"/>
<path style="fill:#FFFFFF;" d="M1180.545,1257.976c34.965-2.629,60.541-56.332,74.062-81.573
	c41.693-77.832,71.952-165.141,93.767-250.294c21.773-84.995,49.842-194.039,37.54-284.161c-0.793-5.805-1.753-11.532-2.893-17.169
	c-11.898-58.829-80.347-98.236-108.034-25.491c-9.601,25.226-10.59,53.775-12.402,80.424
	c-9.393,138.128-39.118,274.927-87.983,404.913C1163.685,1113.67,1103.624,1263.76,1180.545,1257.976z"/>
<path style="fill:#FFFFFF;" d="M775.133,1272.492c-42.167-79.476-81.775-160.995-112.121-245.802
	c-14.083-39.356-25.204-79.711-35.443-120.216c-13.426-53.119-24.598-106.932-31.514-161.309
	c-13.508-106.214-13.503-222.035,34.878-320.151c5.624-11.406,11.909-22.456,18.777-33.157c3.735-5.823-5.538-11.203-9.256-5.409
	c-59.074,92.066-68.405,206.464-59.883,312.972c4.449,55.611,13.814,110.781,25.994,165.191
	c10.346,46.219,22.134,92.426,36.743,137.498c26.751,82.527,63.875,161.798,103.339,238.903
	c53.08,103.712,112.468,204.192,175.533,302.119c73.784,114.568,152.961,225.666,236.729,333.144
	c11.094,14.234,22.276,28.399,33.532,42.506c0.506,0.634,1.057,1.087,1.629,1.385c4.283,2.24,9.711-4.251,5.951-8.964
	c-10.166-12.739-20.263-25.533-30.295-38.379c-74.707-95.657-145.683-194.239-212.513-295.555
	C892.045,1478.47,830.614,1377.062,775.133,1272.492z"/>
</svg>
